RobotoSerifMicroCond-Regular Italic 06fz.ufo
<glyph name="T" format="2">
  <advance width="612"/>
  <unicode hex="0054"/>
  <anchor x="281.0" y="741" name="top"/>
  <anchor x="281.0" y="0" name="bottom"/>
  <outline>
    <contour>
      <point x="179" y="92" type="line" smooth="yes"/>
      <point x="172" y="63"/>
      <point x="136" y="56"/>
      <point x="96" y="56" type="curve" smooth="yes"/>
      <point x="80" y="56" type="line"/>
      <point x="66" y="0" type="line"/>
      <point x="336" y="0" type="line"/>
      <point x="351" y="56" type="line"/>
      <point x="334" y="56" type="line" smooth="yes"/>
      <point x="294" y="56"/>
      <point x="262" y="63"/>
      <point x="269" y="92" type="curve" smooth="yes"/>
      <point x="410" y="656" type="line"/>
      <point x="451" y="656" type="line" smooth="yes"/>
      <point x="528" y="656"/>
      <point x="551" y="641"/>
      <point x="544" y="600" type="curve" smooth="yes"/>
      <point x="522" y="469" type="line"/>
      <point x="581" y="469" type="line"/>
      <point x="642" y="710" type="line"/>
      <point x="116" y="710" type="line"/>
      <point x="55" y="469" type="line"/>
      <point x="114" y="469" type="line"/>
      <point x="160" y="600" type="line" smooth="yes"/>
      <point x="174" y="640"/>
      <point x="201" y="656"/>
      <point x="280" y="656" type="curve" smooth="yes"/>
      <point x="320" y="656" type="line"/>
    </contour>
  </outline>
</glyph>
<glyph name="o" format="2">
  <advance width="540"/>
  <unicode hex="006F"/>
  <anchor x="273" y="565" name="top"/>
  <anchor x="383" y="0" name="right"/>
  <anchor x="273" y="0" name="bottom"/>
  <outline>
    <contour>
      <point x="151" y="575"/>
      <point x="37" y="373"/>
      <point x="37" y="183" type="curve" smooth="yes"/>
      <point x="37" y="63"/>
      <point x="102" y="-13"/>
      <point x="216" y="-13" type="curve" smooth="yes"/>
      <point x="388" y="-13"/>
      <point x="503" y="188"/>
      <point x="503" y="379" type="curve" smooth="yes"/>
      <point x="503" y="499"/>
      <point x="438" y="575"/>
      <point x="325" y="575" type="curve" smooth="yes"/>
    </contour>
    <contour>
      <point x="381" y="198" type="curve" smooth="yes"/>
      <point x="351" y="108"/>
      <point x="297" y="43"/>
      <point x="224" y="43" type="curve" smooth="yes"/>
      <point x="155" y="43"/>
      <point x="124" y="87"/>
      <point x="124" y="174" type="curve" smooth="yes"/>
      <point x="124" y="240"/>
      <point x="138" y="304"/>
      <point x="159" y="364" type="curve" smooth="yes"/>
      <point x="190" y="454"/>
      <point x="242" y="519"/>
      <point x="317" y="519" type="curve" smooth="yes"/>
      <point x="385" y="519"/>
      <point x="416" y="475"/>
      <point x="416" y="388" type="curve" smooth="yes"/>
      <point x="416" y="322"/>
      <point x="402" y="258"/>
    </contour>
  </outline>
</glyph>
<glyph name="asterisk" format="2">
  <advance width="457"/>
  <outline>
    <contour>
      <point x="96" y="643" type="curve"/>
      <point x="151" y="709" type="line"/>
      <point x="199" y="670"/>
      <point x="210" y="631"/>
      <point x="255" y="595" type="curve"/>
      <point x="231" y="570" type="line"/>
      <point x="186" y="607"/>
      <point x="141" y="607"/>
    </contour>
    <contour>
      <point x="90" y="451" type="curve"/>
      <point x="65" y="524" type="line"/>
      <point x="126" y="547"/>
      <point x="168" y="539"/>
      <point x="229" y="563" type="curve"/>
      <point x="237" y="533" type="line"/>
      <point x="176" y="510"/>
      <point x="151" y="475"/>
    </contour>
    <contour>
      <point x="254" y="343" type="curve"/>
      <point x="171" y="343" type="line"/>
      <point x="189" y="422"/>
      <point x="225" y="459"/>
      <point x="242" y="527" type="curve"/>
      <point x="274" y="523" type="line"/>
      <point x="257" y="454"/>
      <point x="272" y="411"/>
    </contour>
    <contour>
      <point x="282" y="778" type="curve"/>
      <point x="365" y="778" type="line"/>
      <point x="347" y="699"/>
      <point x="311" y="663"/>
      <point x="294" y="595" type="curve"/>
      <point x="262" y="599" type="line"/>
      <point x="279" y="668"/>
      <point x="264" y="710"/>
    </contour>
    <contour>
      <point x="383" y="411" type="line"/>
      <point x="335" y="452"/>
      <point x="325" y="490"/>
      <point x="279" y="527" type="curve"/>
      <point x="303" y="552" type="line"/>
      <point x="349" y="514"/>
      <point x="394" y="514"/>
      <point x="440" y="477" type="curve"/>
    </contour>
    <contour>
      <point x="473" y="602" type="line"/>
      <point x="412" y="579"/>
      <point x="366" y="583"/>
      <point x="305" y="559" type="curve"/>
      <point x="297" y="589" type="line"/>
      <point x="358" y="612"/>
      <point x="387" y="651"/>
      <point x="448" y="675" type="curve"/>
    </contour>
  </outline>
</glyph>
<glyph name="cent.altprop" format="2">
  <advance width="526"/>
  <outline>
    <contour>
      <point x="340" y="575" type="curve" smooth="yes"/>
      <point x="154" y="575"/>
      <point x="40" y="391"/>
      <point x="40" y="195" type="curve" smooth="yes"/>
      <point x="40" y="65"/>
      <point x="113" y="-13"/>
      <point x="239" y="-13" type="curve" smooth="yes"/>
      <point x="323" y="-13"/>
      <point x="393" y="45"/>
      <point x="436" y="112" type="curve"/>
      <point x="391" y="145" type="line"/>
      <point x="353" y="93"/>
      <point x="314" y="44"/>
      <point x="242" y="44" type="curve" smooth="yes"/>
      <point x="180" y="44"/>
      <point x="130" y="80"/>
      <point x="130" y="188" type="curve" smooth="yes"/>
      <point x="130" y="363"/>
      <point x="195" y="517"/>
      <point x="340" y="517" type="curve" smooth="yes"/>
      <point x="409" y="517"/>
      <point x="434" y="497"/>
      <point x="461" y="488" type="curve"/>
      <point x="461" y="492"/>
      <point x="444" y="501"/>
      <point x="418" y="513" type="curve"/>
      <point x="377" y="362" type="line"/>
      <point x="459" y="362" type="line"/>
      <point x="505" y="531" type="line"/>
      <point x="484" y="543"/>
      <point x="426" y="575"/>
    </contour>
    <contour>
      <point x="172" y="11" type="line"/>
      <point x="128" y="-166" type="line"/>
      <point x="204" y="-166" type="line"/>
      <point x="250" y="20" type="line"/>
    </contour>
    <contour>
      <point x="342" y="703" type="line"/>
      <point x="305" y="546" type="line"/>
      <point x="384" y="555" type="line"/>
      <point x="420" y="703" type="line"/>
    </contour>
  </outline>
</glyph>
<glyph name="dollar.altprop" format="2">
  <advance width="553"/>
  <outline>
    <contour>
      <point x="236" y="-1" type="curve" smooth="yes"/>
      <point x="382" y="-1"/>
      <point x="475" y="76"/>
      <point x="475" y="212" type="curve" smooth="yes"/>
      <point x="475" y="317"/>
      <point x="408" y="351"/>
      <point x="327" y="388" type="curve" smooth="yes"/>
      <point x="248" y="424"/>
      <point x="196" y="441"/>
      <point x="196" y="520" type="curve" smooth="yes"/>
      <point x="196" y="609"/>
      <point x="246" y="651"/>
      <point x="336" y="651" type="curve" smooth="yes"/>
      <point x="418" y="651"/>
      <point x="477" y="623"/>
      <point x="508" y="600" type="curve"/>
      <point x="505" y="618"/>
      <point x="489" y="632"/>
      <point x="465" y="646" type="curve"/>
      <point x="426" y="492" type="line"/>
      <point x="510" y="492" type="line"/>
      <point x="550" y="653" type="line"/>
      <point x="528" y="669"/>
      <point x="452" y="705"/>
      <point x="337" y="705" type="curve" smooth="yes"/>
      <point x="184" y="705"/>
      <point x="117" y="623"/>
      <point x="117" y="510" type="curve" smooth="yes"/>
      <point x="117" y="411"/>
      <point x="169" y="377"/>
      <point x="254" y="338" type="curve" smooth="yes"/>
      <point x="324" y="306"/>
      <point x="391" y="285"/>
      <point x="391" y="207" type="curve" smooth="yes"/>
      <point x="391" y="97"/>
      <point x="330" y="53"/>
      <point x="235" y="53" type="curve" smooth="yes"/>
      <point x="146" y="53"/>
      <point x="72" y="87"/>
      <point x="40" y="111" type="curve"/>
      <point x="41" y="106"/>
      <point x="55" y="63"/>
      <point x="82" y="63" type="curve"/>
      <point x="121" y="217" type="line"/>
      <point x="37" y="217" type="line"/>
      <point x="-2" y="62" type="line"/>
      <point x="22" y="45"/>
      <point x="111" y="-1"/>
    </contour>
    <contour>
      <point x="116" y="-150" type="line"/>
      <point x="195" y="-150" type="line"/>
      <point x="237" y="19" type="line"/>
      <point x="158" y="20" type="line"/>
    </contour>
    <contour>
      <point x="404" y="688" type="line"/>
      <point x="437" y="820" type="line"/>
      <point x="358" y="820" type="line"/>
      <point x="324" y="684" type="line"/>
    </contour>
  </outline>
</glyph>
<glyph name="dollar.proportional" format="2">
  <advance width="546"/>
  <outline>
    <contour>
      <point x="233" y="-1" type="curve" smooth="yes"/>
      <point x="379" y="-1"/>
      <point x="472" y="75"/>
      <point x="472" y="210" type="curve" smooth="yes"/>
      <point x="472" y="316"/>
      <point x="402" y="349"/>
      <point x="322" y="386" type="curve" smooth="yes"/>
      <point x="241" y="424"/>
      <point x="185" y="441"/>
      <point x="185" y="520" type="curve" smooth="yes"/>
      <point x="185" y="612"/>
      <point x="240" y="654"/>
      <point x="333" y="654" type="curve" smooth="yes"/>
      <point x="415" y="654"/>
      <point x="474" y="626"/>
      <point x="505" y="603" type="curve"/>
      <point x="502" y="622"/>
      <point x="490" y="633"/>
      <point x="467" y="646" type="curve"/>
      <point x="428" y="492" type="line"/>
      <point x="507" y="492" type="line"/>
      <point x="547" y="653" type="line"/>
      <point x="525" y="669"/>
      <point x="449" y="705"/>
      <point x="334" y="705" type="curve" smooth="yes"/>
      <point x="181" y="705"/>
      <point x="114" y="623"/>
      <point x="114" y="510" type="curve" smooth="yes"/>
      <point x="114" y="411"/>
      <point x="168" y="379"/>
      <point x="253" y="340" type="curve" smooth="yes"/>
      <point x="325" y="307"/>
      <point x="396" y="284"/>
      <point x="396" y="205" type="curve" smooth="yes"/>
      <point x="396" y="94"/>
      <point x="330" y="51"/>
      <point x="232" y="51" type="curve" smooth="yes"/>
      <point x="143" y="51"/>
      <point x="69" y="85"/>
      <point x="37" y="109" type="curve"/>
      <point x="38" y="104"/>
      <point x="49" y="63"/>
      <point x="74" y="63" type="curve"/>
      <point x="113" y="217" type="line"/>
      <point x="34" y="217" type="line"/>
      <point x="-5" y="62" type="line"/>
      <point x="19" y="45"/>
      <point x="108" y="-1"/>
    </contour>
    <contour>
      <point x="113" y="-150" type="line"/>
      <point x="192" y="-150" type="line"/>
      <point x="234" y="19" type="line"/>
      <point x="225" y="36" type="line"/>
      <point x="385" y="677" type="line"/>
      <point x="401" y="688" type="line"/>
      <point x="434" y="820" type="line"/>
      <point x="355" y="820" type="line"/>
      <point x="321" y="684" type="line"/>
      <point x="332" y="675" type="line"/>
      <point x="172" y="34" type="line"/>
      <point x="155" y="20" type="line"/>
    </contour>
  </outline>
</glyph>
<glyph name="f_f.short" format="2">
  <advance width="688"/>
  <outline>
    <contour>
      <point x="89" y="565" type="line"/>
      <point x="75" y="508" type="line"/>
      <point x="379" y="508" type="line"/>
      <point x="393" y="565" type="line"/>
    </contour>
    <contour>
      <point x="103" y="-223" type="line"/>
      <point x="271" y="612" type="line" smooth="yes"/>
      <point x="286" y="687"/>
      <point x="299" y="709"/>
      <point x="353" y="709" type="curve" smooth="yes"/>
      <point x="382" y="709"/>
      <point x="410" y="703"/>
      <point x="425" y="698" type="curve"/>
      <point x="440" y="765" type="line"/>
      <point x="426" y="769"/>
      <point x="389" y="775"/>
      <point x="355" y="775" type="curve" smooth="yes"/>
      <point x="252" y="775"/>
      <point x="206" y="730"/>
      <point x="186" y="623" type="curve" smooth="yes"/>
      <point x="31" y="-223" type="line"/>
    </contour>
    <contour>
      <point x="386" y="565" type="line"/>
      <point x="372" y="508" type="line"/>
      <point x="676" y="508" type="line"/>
      <point x="690" y="565" type="line"/>
    </contour>
    <contour>
      <point x="400" y="-223" type="line"/>
      <point x="571" y="627" type="line" smooth="yes"/>
      <point x="586" y="702"/>
      <point x="601" y="724"/>
      <point x="646" y="724" type="curve" smooth="yes"/>
      <point x="678" y="724"/>
      <point x="708" y="713"/>
      <point x="724" y="707" type="curve"/>
      <point x="739" y="774" type="line"/>
      <point x="724" y="780"/>
      <point x="686" y="790"/>
      <point x="650" y="790" type="curve" smooth="yes"/>
      <point x="552" y="790"/>
      <point x="506" y="745"/>
      <point x="486" y="638" type="curve" smooth="yes"/>
      <point x="328" y="-223" type="line"/>
    </contour>
  </outline>
</glyph>
<glyph name="f_f_h" format="2">
  <advance width="1193"/>
  <outline>
    <contour>
      <point x="382" y="565" type="line"/>
      <point x="698" y="565" type="line"/>
      <point x="684" y="508" type="line"/>
      <point x="368" y="508" type="line"/>
    </contour>
    <contour>
      <point x="674" y="728" type="curve" smooth="yes"/>
      <point x="599" y="728"/>
      <point x="586" y="703"/>
      <point x="571" y="628" type="curve" smooth="yes"/>
      <point x="400" y="-223" type="line"/>
      <point x="328" y="-223" type="line"/>
      <point x="486" y="638" type="line" smooth="yes"/>
      <point x="506" y="745"/>
      <point x="557" y="790"/>
      <point x="675" y="790" type="curve" smooth="yes"/>
      <point x="749" y="790"/>
      <point x="808" y="762"/>
      <point x="842" y="744" type="curve"/>
      <point x="830" y="695" type="line"/>
      <point x="791" y="710"/>
      <point x="745" y="728"/>
    </contour>
    <contour>
      <point x="647" y="0" type="line"/>
      <point x="825" y="723" type="line"/>
      <point x="734" y="780" type="line"/>
      <point x="925" y="780" type="line"/>
      <point x="733" y="0" type="line"/>
    </contour>
    <contour>
      <point x="1082" y="248" type="line" smooth="yes"/>
      <point x="1049" y="126"/>
      <point x="1037" y="84"/>
      <point x="1037" y="68" type="curve" smooth="yes"/>
      <point x="1037" y="59"/>
      <point x="1041" y="55"/>
      <point x="1053" y="55" type="curve" smooth="yes"/>
      <point x="1077" y="55"/>
      <point x="1104" y="55"/>
      <point x="1128" y="55" type="curve"/>
      <point x="1115" y="0" type="line"/>
      <point x="1088" y="0"/>
      <point x="1061" y="0"/>
      <point x="1033" y="0" type="curve" smooth="yes"/>
      <point x="980" y="0"/>
      <point x="949" y="20"/>
      <point x="949" y="59" type="curve" smooth="yes"/>
      <point x="949" y="87"/>
      <point x="959" y="118"/>
      <point x="993" y="243" type="curve" smooth="yes"/>
      <point x="1032" y="387" type="line" smooth="yes"/>
      <point x="1042" y="424"/>
      <point x="1046" y="443"/>
      <point x="1046" y="464" type="curve" smooth="yes"/>
      <point x="1046" y="493"/>
      <point x="1035" y="509"/>
      <point x="1005" y="509" type="curve" smooth="yes"/>
      <point x="952" y="509"/>
      <point x="891" y="438"/>
      <point x="808" y="334" type="curve"/>
      <point x="802" y="373" type="line"/>
      <point x="883" y="487"/>
      <point x="951" y="575"/>
      <point x="1051" y="575" type="curve" smooth="yes"/>
      <point x="1111" y="575"/>
      <point x="1138" y="540"/>
      <point x="1138" y="491" type="curve" smooth="yes"/>
      <point x="1138" y="459"/>
      <point x="1131" y="427"/>
      <point x="1119" y="384" type="curve" smooth="yes"/>
    </contour>
    <contour>
      <point x="89" y="565" type="line"/>
      <point x="393" y="565" type="line"/>
      <point x="379" y="508" type="line"/>
      <point x="75" y="508" type="line"/>
    </contour>
    <contour>
      <point x="103" y="-223" type="line"/>
      <point x="31" y="-223" type="line"/>
      <point x="186" y="623" type="line" smooth="yes"/>
      <point x="206" y="730"/>
      <point x="252" y="775"/>
      <point x="355" y="775" type="curve" smooth="yes"/>
      <point x="389" y="775"/>
      <point x="426" y="769"/>
      <point x="440" y="765" type="curve"/>
      <point x="425" y="698" type="line"/>
      <point x="410" y="703"/>
      <point x="382" y="709"/>
      <point x="353" y="709" type="curve" smooth="yes"/>
      <point x="299" y="709"/>
      <point x="286" y="687"/>
      <point x="271" y="612" type="curve" smooth="yes"/>
    </contour>
  </outline>
</glyph>
<glyph name="f_f_i.alt" format="2">
  <advance width="882"/>
  <outline>
    <contour>
      <point x="760" y="465" type="curve" smooth="yes"/>
      <point x="706" y="243" type="line" smooth="yes"/>
      <point x="678" y="128"/>
      <point x="666" y="90"/>
      <point x="666" y="58" type="curve" smooth="yes"/>
      <point x="666" y="20"/>
      <point x="697" y="0"/>
      <point x="750" y="0" type="curve" smooth="yes"/>
      <point x="778" y="0"/>
      <point x="804" y="0"/>
      <point x="832" y="0" type="curve"/>
      <point x="845" y="55" type="line"/>
      <point x="820" y="55"/>
      <point x="795" y="55"/>
      <point x="770" y="55" type="curve" smooth="yes"/>
      <point x="758" y="55"/>
      <point x="754" y="59"/>
      <point x="754" y="68" type="curve" smooth="yes"/>
      <point x="754" y="83"/>
      <point x="764" y="125"/>
      <point x="792" y="242" type="curve" smooth="yes"/>
      <point x="870" y="565" type="line"/>
      <point x="386" y="565" type="line"/>
      <point x="372" y="508" type="line"/>
      <point x="681" y="508" type="line" smooth="yes"/>
      <point x="728" y="508"/>
      <point x="764" y="482"/>
    </contour>
    <contour>
      <point x="710" y="790" type="curve" smooth="yes"/>
      <point x="561" y="790"/>
      <point x="505" y="744"/>
      <point x="486" y="638" type="curve" smooth="yes"/>
      <point x="328" y="-223" type="line"/>
      <point x="400" y="-223" type="line"/>
      <point x="571" y="627" type="line" smooth="yes"/>
      <point x="588" y="710"/>
      <point x="618" y="731"/>
      <point x="699" y="731" type="curve" smooth="yes"/>
      <point x="760" y="731"/>
      <point x="801" y="717"/>
      <point x="827" y="698" type="curve"/>
      <point x="824" y="715"/>
      <point x="817" y="737"/>
      <point x="782" y="742" type="curve"/>
      <point x="763" y="651" type="line"/>
      <point x="850" y="651" type="line"/>
      <point x="874" y="759" type="line"/>
      <point x="848" y="769"/>
      <point x="787" y="790"/>
    </contour>
    <contour>
      <point x="89" y="565" type="line"/>
      <point x="75" y="508" type="line"/>
      <point x="379" y="508" type="line"/>
      <point x="393" y="565" type="line"/>
    </contour>
    <contour>
      <point x="392" y="713" type="curve" smooth="yes"/>
      <point x="475.0" y="713.0"/>
      <point x="522" y="687"/>
      <point x="551" y="661" type="curve"/>
      <point x="549" y="685"/>
      <point x="538.0" y="716.0"/>
      <point x="501" y="716" type="curve"/>
      <point x="485" y="632" type="line"/>
      <point x="564" y="633" type="line"/>
      <point x="589" y="719" type="line"/>
      <point x="563" y="739"/>
      <point x="502" y="775.0"/>
      <point x="397" y="775" type="curve" smooth="yes"/>
      <point x="261" y="775"/>
      <point x="206" y="730"/>
      <point x="186" y="623" type="curve" smooth="yes"/>
      <point x="31" y="-223" type="line"/>
      <point x="103" y="-223" type="line"/>
      <point x="271" y="613" type="line" smooth="yes"/>
      <point x="286" y="689"/>
      <point x="310" y="713"/>
    </contour>
  </outline>
</glyph>
<glyph name="f_f_i" format="2">
  <advance width="918"/>
  <outline>
    <contour>
      <point x="400" y="-223" type="line"/>
      <point x="571" y="627" type="line" smooth="yes"/>
      <point x="586" y="702"/>
      <point x="601" y="724"/>
      <point x="646" y="724" type="curve" smooth="yes"/>
      <point x="678" y="724"/>
      <point x="708" y="713"/>
      <point x="724" y="707" type="curve"/>
      <point x="739" y="774" type="line"/>
      <point x="724" y="780"/>
      <point x="686" y="790"/>
      <point x="650" y="790" type="curve" smooth="yes"/>
      <point x="552" y="790"/>
      <point x="506" y="745"/>
      <point x="486" y="638" type="curve" smooth="yes"/>
      <point x="328" y="-223" type="line"/>
    </contour>
    <contour>
      <point x="760" y="465" type="curve" smooth="yes"/>
      <point x="706" y="243" type="line" smooth="yes"/>
      <point x="678" y="128"/>
      <point x="666" y="90"/>
      <point x="666" y="58" type="curve" smooth="yes"/>
      <point x="666" y="20"/>
      <point x="697" y="0"/>
      <point x="750" y="0" type="curve" smooth="yes"/>
      <point x="778" y="0"/>
      <point x="804" y="0"/>
      <point x="832" y="0" type="curve"/>
      <point x="845" y="55" type="line"/>
      <point x="820" y="55"/>
      <point x="795" y="55"/>
      <point x="770" y="55" type="curve" smooth="yes"/>
      <point x="758" y="55"/>
      <point x="754" y="59"/>
      <point x="754" y="68" type="curve" smooth="yes"/>
      <point x="754" y="83"/>
      <point x="764" y="125"/>
      <point x="792" y="242" type="curve" smooth="yes"/>
      <point x="870" y="565" type="line"/>
      <point x="386" y="565" type="line"/>
      <point x="372" y="508" type="line"/>
      <point x="681" y="508" type="line" smooth="yes"/>
      <point x="728" y="508"/>
      <point x="764" y="482"/>
    </contour>
    <contour>
      <point x="844" y="682" type="curve" smooth="yes"/>
      <point x="888" y="682"/>
      <point x="910" y="709"/>
      <point x="910" y="751" type="curve" smooth="yes"/>
      <point x="910" y="790"/>
      <point x="887" y="807"/>
      <point x="852" y="807" type="curve" smooth="yes"/>
      <point x="808" y="807"/>
      <point x="786" y="780"/>
      <point x="786" y="738" type="curve" smooth="yes"/>
      <point x="786" y="699"/>
      <point x="809" y="682"/>
    </contour>
    <contour>
      <point x="89" y="565" type="line"/>
      <point x="75" y="508" type="line"/>
      <point x="379" y="508" type="line"/>
      <point x="393" y="565" type="line"/>
    </contour>
    <contour>
      <point x="103" y="-223" type="line"/>
      <point x="271" y="612" type="line" smooth="yes"/>
      <point x="286" y="687"/>
      <point x="299" y="709"/>
      <point x="353" y="709" type="curve" smooth="yes"/>
      <point x="382" y="709"/>
      <point x="410" y="703"/>
      <point x="425" y="698" type="curve"/>
      <point x="440" y="765" type="line"/>
      <point x="426" y="769"/>
      <point x="389" y="775"/>
      <point x="355" y="775" type="curve" smooth="yes"/>
      <point x="252" y="775"/>
      <point x="206" y="730"/>
      <point x="186" y="623" type="curve" smooth="yes"/>
      <point x="31" y="-223" type="line"/>
    </contour>
  </outline>
</glyph>
<glyph name="f_f_k" format="2">
  <advance width="1163"/>
  <outline>
    <contour>
      <point x="382" y="565" type="line"/>
      <point x="698" y="565" type="line"/>
      <point x="684" y="508" type="line"/>
      <point x="368" y="508" type="line"/>
    </contour>
    <contour>
      <point x="674" y="728" type="curve" smooth="yes"/>
      <point x="599" y="728"/>
      <point x="586" y="703"/>
      <point x="571" y="628" type="curve" smooth="yes"/>
      <point x="400" y="-223" type="line"/>
      <point x="328" y="-223" type="line"/>
      <point x="486" y="638" type="line" smooth="yes"/>
      <point x="506" y="745"/>
      <point x="557" y="790"/>
      <point x="675" y="790" type="curve" smooth="yes"/>
      <point x="749" y="790"/>
      <point x="808" y="762"/>
      <point x="842" y="744" type="curve"/>
      <point x="830" y="695" type="line"/>
      <point x="791" y="710"/>
      <point x="745" y="728"/>
    </contour>
    <contour>
      <point x="647" y="0" type="line"/>
      <point x="825" y="723" type="line"/>
      <point x="734" y="780" type="line"/>
      <point x="925" y="780" type="line"/>
      <point x="733" y="0" type="line"/>
    </contour>
    <contour>
      <point x="1001" y="77" type="line" smooth="yes"/>
      <point x="1007" y="60"/>
      <point x="1013" y="55"/>
      <point x="1034" y="55" type="curve" smooth="yes"/>
      <point x="1052" y="55"/>
      <point x="1070" y="55"/>
      <point x="1089" y="55" type="curve"/>
      <point x="1076" y="0" type="line"/>
      <point x="1049" y="0"/>
      <point x="1021" y="0"/>
      <point x="994" y="0" type="curve"/>
      <point x="944" y="0"/>
      <point x="933" y="12"/>
      <point x="918" y="62" type="curve"/>
      <point x="841" y="301" type="line"/>
      <point x="844" y="306" type="line"/>
      <point x="922" y="393"/>
      <point x="1000" y="479"/>
      <point x="1077" y="565" type="curve"/>
      <point x="1167" y="565" type="line"/>
      <point x="1167" y="550" type="line"/>
      <point x="1071" y="457"/>
      <point x="979" y="368"/>
      <point x="881" y="274" type="curve"/>
      <point x="914" y="334" type="line"/>
    </contour>
    <contour>
      <point x="89" y="565" type="line"/>
      <point x="393" y="565" type="line"/>
      <point x="379" y="508" type="line"/>
      <point x="75" y="508" type="line"/>
    </contour>
    <contour>
      <point x="103" y="-223" type="line"/>
      <point x="31" y="-223" type="line"/>
      <point x="186" y="623" type="line" smooth="yes"/>
      <point x="206" y="730"/>
      <point x="252" y="775"/>
      <point x="355" y="775" type="curve" smooth="yes"/>
      <point x="389" y="775"/>
      <point x="426" y="769"/>
      <point x="440" y="765" type="curve"/>
      <point x="425" y="698" type="line"/>
      <point x="410" y="703"/>
      <point x="382" y="709"/>
      <point x="353" y="709" type="curve" smooth="yes"/>
      <point x="299" y="709"/>
      <point x="286" y="687"/>
      <point x="271" y="612" type="curve" smooth="yes"/>
    </contour>
  </outline>
</glyph>
<glyph name="f_f_l" format="2">
  <advance width="931"/>
  <outline>
    <contour>
      <point x="382" y="565" type="line"/>
      <point x="698" y="565" type="line"/>
      <point x="684" y="508" type="line"/>
      <point x="368" y="508" type="line"/>
    </contour>
    <contour>
      <point x="674" y="728" type="curve" smooth="yes"/>
      <point x="599" y="728"/>
      <point x="586" y="703"/>
      <point x="571" y="628" type="curve" smooth="yes"/>
      <point x="400" y="-223" type="line"/>
      <point x="328" y="-223" type="line"/>
      <point x="486" y="638" type="line" smooth="yes"/>
      <point x="506" y="745"/>
      <point x="557" y="790"/>
      <point x="675" y="790" type="curve" smooth="yes"/>
      <point x="749" y="790"/>
      <point x="808" y="762"/>
      <point x="842" y="744" type="curve"/>
      <point x="830" y="695" type="line"/>
      <point x="791" y="710"/>
      <point x="745" y="728"/>
    </contour>
    <contour>
      <point x="794" y="248" type="line" smooth="yes"/>
      <point x="764" y="127"/>
      <point x="753" y="83"/>
      <point x="753" y="68" type="curve" smooth="yes"/>
      <point x="753" y="59"/>
      <point x="757" y="55"/>
      <point x="770" y="55" type="curve" smooth="yes"/>
      <point x="796" y="55"/>
      <point x="820" y="55"/>
      <point x="845" y="55" type="curve"/>
      <point x="832" y="0" type="line"/>
      <point x="804" y="0"/>
      <point x="775" y="0"/>
      <point x="748" y="0" type="curve" smooth="yes"/>
      <point x="695" y="0"/>
      <point x="664" y="18"/>
      <point x="664" y="55" type="curve" smooth="yes"/>
      <point x="664" y="85"/>
      <point x="677" y="126"/>
      <point x="706" y="243" type="curve" smooth="yes"/>
      <point x="824" y="723" type="line"/>
      <point x="734" y="780" type="line"/>
      <point x="925" y="780" type="line"/>
    </contour>
    <contour>
      <point x="89" y="565" type="line"/>
      <point x="393" y="565" type="line"/>
      <point x="379" y="508" type="line"/>
      <point x="75" y="508" type="line"/>
    </contour>
    <contour>
      <point x="103" y="-223" type="line"/>
      <point x="31" y="-223" type="line"/>
      <point x="186" y="623" type="line" smooth="yes"/>
      <point x="206" y="730"/>
      <point x="252" y="775"/>
      <point x="355" y="775" type="curve" smooth="yes"/>
      <point x="389" y="775"/>
      <point x="426" y="769"/>
      <point x="440" y="765" type="curve"/>
      <point x="425" y="698" type="line"/>
      <point x="410" y="703"/>
      <point x="382" y="709"/>
      <point x="353" y="709" type="curve" smooth="yes"/>
      <point x="299" y="709"/>
      <point x="286" y="687"/>
      <point x="271" y="612" type="curve" smooth="yes"/>
    </contour>
  </outline>
</glyph>
<glyph name="f_i" format="2">
  <advance width="621"/>
  <outline>
    <contour>
      <point x="103" y="-223" type="line"/>
      <point x="274" y="627" type="line" smooth="yes"/>
      <point x="289" y="702"/>
      <point x="304" y="724"/>
      <point x="349" y="724" type="curve" smooth="yes"/>
      <point x="381" y="724"/>
      <point x="411" y="713"/>
      <point x="427" y="707" type="curve"/>
      <point x="442" y="774" type="line"/>
      <point x="427" y="780"/>
      <point x="389" y="790"/>
      <point x="353" y="790" type="curve" smooth="yes"/>
      <point x="255" y="790"/>
      <point x="209" y="745"/>
      <point x="189" y="638" type="curve" smooth="yes"/>
      <point x="31" y="-223" type="line"/>
    </contour>
    <contour>
      <point x="463" y="465" type="curve" smooth="yes"/>
      <point x="409" y="243" type="line" smooth="yes"/>
      <point x="381" y="128"/>
      <point x="369" y="90"/>
      <point x="369" y="58" type="curve" smooth="yes"/>
      <point x="369" y="20"/>
      <point x="400" y="0"/>
      <point x="453" y="0" type="curve" smooth="yes"/>
      <point x="481" y="0"/>
      <point x="507" y="0"/>
      <point x="535" y="0" type="curve"/>
      <point x="548" y="55" type="line"/>
      <point x="523" y="55"/>
      <point x="498" y="55"/>
      <point x="473" y="55" type="curve" smooth="yes"/>
      <point x="461" y="55"/>
      <point x="457" y="59"/>
      <point x="457" y="68" type="curve" smooth="yes"/>
      <point x="457" y="83"/>
      <point x="467" y="125"/>
      <point x="495" y="242" type="curve" smooth="yes"/>
      <point x="573" y="565" type="line"/>
      <point x="89" y="565" type="line"/>
      <point x="75" y="508" type="line"/>
      <point x="384" y="508" type="line" smooth="yes"/>
      <point x="431" y="508"/>
      <point x="467" y="482"/>
    </contour>
    <contour>
      <point x="547" y="682" type="curve" smooth="yes"/>
      <point x="591" y="682"/>
      <point x="613" y="709"/>
      <point x="613" y="751" type="curve" smooth="yes"/>
      <point x="613" y="790"/>
      <point x="590" y="807"/>
      <point x="555" y="807" type="curve" smooth="yes"/>
      <point x="511" y="807"/>
      <point x="489" y="780"/>
      <point x="489" y="738" type="curve" smooth="yes"/>
      <point x="489" y="699"/>
      <point x="512" y="682"/>
    </contour>
  </outline>
</glyph>
<glyph name="guarani.proportional" format="2">
  <advance width="631"/>
  <outline>
    <contour>
      <point x="381" y="790" type="line"/>
      <point x="351" y="669" type="line"/>
      <point x="363" y="659" type="line"/>
      <point x="211" y="50" type="line"/>
      <point x="194" y="39" type="line"/>
      <point x="155" y="-120" type="line"/>
      <point x="231" y="-120" type="line"/>
      <point x="270" y="40" type="line"/>
      <point x="259" y="50" type="line"/>
      <point x="410" y="655" type="line"/>
      <point x="428" y="673" type="line"/>
      <point x="457" y="790" type="line"/>
    </contour>
    <contour>
      <point x="275" y="10" type="curve" smooth="yes"/>
      <point x="359" y="10"/>
      <point x="425" y="45"/>
      <point x="463" y="73" type="curve"/>
      <point x="512" y="270" type="line" smooth="yes"/>
      <point x="519" y="299"/>
      <point x="534" y="306"/>
      <point x="560" y="306" type="curve"/>
      <point x="564" y="306" type="line"/>
      <point x="577" y="358" type="line"/>
      <point x="408" y="358" type="line"/>
      <point x="395" y="306" type="line"/>
      <point x="406" y="306" type="line"/>
      <point x="430" y="306"/>
      <point x="436" y="294"/>
      <point x="428" y="261" type="curve"/>
      <point x="385" y="90" type="line"/>
      <point x="367" y="81"/>
      <point x="340" y="65"/>
      <point x="286" y="65" type="curve" smooth="yes"/>
      <point x="182" y="65"/>
      <point x="131" y="115"/>
      <point x="131" y="211" type="curve" smooth="yes"/>
      <point x="131" y="262"/>
      <point x="136" y="320"/>
      <point x="153" y="386" type="curve" smooth="yes"/>
      <point x="197" y="557"/>
      <point x="260" y="645"/>
      <point x="394" y="645" type="curve" smooth="yes"/>
      <point x="485" y="645"/>
      <point x="544" y="625"/>
      <point x="568" y="599" type="curve"/>
      <point x="581" y="616"/>
      <point x="549" y="640"/>
      <point x="524" y="656" type="curve"/>
      <point x="490" y="518" type="line"/>
      <point x="578" y="518" type="line"/>
      <point x="613" y="657" type="line"/>
      <point x="578" y="674"/>
      <point x="504" y="700"/>
      <point x="396" y="700" type="curve" smooth="yes"/>
      <point x="142" y="700"/>
      <point x="43" y="444"/>
      <point x="43" y="232" type="curve" smooth="yes"/>
      <point x="43" y="94"/>
      <point x="121" y="10"/>
    </contour>
  </outline>
</glyph>
<glyph name="kip.proportional" format="2">
  <advance width="606"/>
  <outline>
    <contour>
      <point x="76" y="403" type="line"/>
      <point x="61" y="345" type="line"/>
      <point x="536" y="345" type="line"/>
      <point x="551" y="403" type="line"/>
    </contour>
    <contour>
      <point x="-20" y="0" type="line"/>
      <point x="180" y="0" type="line"/>
      <point x="194" y="56" type="line"/>
      <point x="185" y="56" type="line" smooth="yes"/>
      <point x="158" y="56"/>
      <point x="134" y="59"/>
      <point x="136" y="66" type="curve" smooth="yes"/>
      <point x="281" y="644" type="line" smooth="yes"/>
      <point x="283" y="651"/>
      <point x="308" y="654"/>
      <point x="335" y="654" type="curve" smooth="yes"/>
      <point x="344" y="654" type="line"/>
      <point x="358" y="710" type="line"/>
      <point x="158" y="710" type="line"/>
      <point x="144" y="654" type="line"/>
      <point x="155" y="654" type="line" smooth="yes"/>
      <point x="186" y="654"/>
      <point x="207" y="647"/>
      <point x="200" y="618" type="curve" smooth="yes"/>
      <point x="68" y="92" type="line" smooth="yes"/>
      <point x="61" y="63"/>
      <point x="36" y="56"/>
      <point x="5" y="56" type="curve" smooth="yes"/>
      <point x="-6" y="56" type="line"/>
    </contour>
    <contour>
      <point x="291" y="0" type="line"/>
      <point x="499" y="0" type="line"/>
      <point x="513" y="56" type="line"/>
      <point x="500" y="56" type="line" smooth="yes"/>
      <point x="474" y="56"/>
      <point x="459" y="61"/>
      <point x="448" y="89" type="curve" smooth="yes"/>
      <point x="318" y="408" type="line"/>
      <point x="308" y="361" type="line"/>
      <point x="542" y="625" type="line" smooth="yes"/>
      <point x="562" y="648"/>
      <point x="576" y="654"/>
      <point x="601" y="654" type="curve" smooth="yes"/>
      <point x="614" y="654" type="line"/>
      <point x="628" y="710" type="line"/>
      <point x="448" y="710" type="line"/>
      <point x="434" y="654" type="line"/>
      <point x="442" y="654" type="line" smooth="yes"/>
      <point x="467" y="654"/>
      <point x="491" y="651"/>
      <point x="490" y="644" type="curve"/>
      <point x="249" y="370" type="line"/>
      <point x="263" y="354" type="line"/>
      <point x="378" y="66" type="line"/>
      <point x="377" y="59"/>
      <point x="346" y="56"/>
      <point x="314" y="56" type="curve" smooth="yes"/>
      <point x="305" y="56" type="line"/>
    </contour>
  </outline>
</glyph>
<glyph name="liraTurkish.proportional" format="2">
  <advance width="576"/>
  <outline>
    <contour>
      <point x="99" y="423" type="line"/>
      <point x="85" y="363" type="line"/>
      <point x="499" y="559" type="line"/>
      <point x="514" y="619" type="line"/>
    </contour>
    <contour>
      <point x="249" y="55" type="curve" smooth="yes"/>
      <point x="172" y="55" type="line"/>
      <point x="313" y="621" type="line" smooth="yes"/>
      <point x="320" y="650"/>
      <point x="355" y="657"/>
      <point x="391" y="657" type="curve" smooth="yes"/>
      <point x="398" y="657" type="line"/>
      <point x="411" y="710" type="line"/>
      <point x="178" y="710" type="line"/>
      <point x="165" y="657" type="line"/>
      <point x="179" y="657" type="line" smooth="yes"/>
      <point x="213" y="657"/>
      <point x="238" y="649"/>
      <point x="231" y="621" type="curve" smooth="yes"/>
      <point x="99" y="92" type="line" smooth="yes"/>
      <point x="92" y="63"/>
      <point x="66" y="56"/>
      <point x="28" y="56" type="curve" smooth="yes"/>
      <point x="14" y="56" type="line"/>
      <point x="0" y="0" type="line"/>
      <point x="232" y="0" type="line" smooth="yes"/>
      <point x="420" y="0"/>
      <point x="483" y="81"/>
      <point x="530" y="260" type="curve"/>
      <point x="462" y="273" type="line"/>
      <point x="426" y="133"/>
      <point x="391" y="55"/>
    </contour>
    <contour>
      <point x="52" y="236" type="line"/>
      <point x="38" y="176" type="line"/>
      <point x="455" y="372" type="line"/>
      <point x="470" y="432" type="line"/>
    </contour>
  </outline>
</glyph>
<glyph name="peso.proportional" format="2">
  <advance width="604"/>
  <outline>
    <contour>
      <point x="105" y="500" type="line"/>
      <point x="87" y="434" type="line"/>
      <point x="193" y="434" type="line"/>
      <point x="224" y="448" type="line"/>
      <point x="468" y="448" type="line"/>
      <point x="481" y="434" type="line"/>
      <point x="604" y="434" type="line"/>
      <point x="621" y="500" type="line"/>
      <point x="510" y="500" type="line"/>
      <point x="472" y="486" type="line"/>
      <point x="231" y="486" type="line"/>
      <point x="214" y="500" type="line"/>
    </contour>
    <contour>
      <point x="-20" y="0" type="line"/>
      <point x="209" y="0" type="line"/>
      <point x="224" y="56" type="line"/>
      <point x="202" y="56" type="line" smooth="yes"/>
      <point x="181" y="56"/>
      <point x="154" y="59"/>
      <point x="156" y="65" type="curve" smooth="yes"/>
      <point x="195" y="219" type="line"/>
      <point x="248" y="219" type="line" smooth="yes"/>
      <point x="431.0" y="219.0"/>
      <point x="532" y="354"/>
      <point x="532" y="523" type="curve" smooth="yes"/>
      <point x="532.0" y="638.0"/>
      <point x="468.8341232227489" y="710"/>
      <point x="336" y="710" type="curve" smooth="yes"/>
      <point x="158" y="710" type="line"/>
      <point x="144" y="657" type="line"/>
      <point x="155" y="657" type="line" smooth="yes"/>
      <point x="192" y="657"/>
      <point x="218" y="650"/>
      <point x="211" y="621" type="curve" smooth="yes"/>
      <point x="79" y="91" type="line" smooth="yes"/>
      <point x="72" y="63"/>
      <point x="43" y="56"/>
      <point x="6" y="56" type="curve" smooth="yes"/>
      <point x="-5" y="56" type="line"/>
    </contour>
    <contour>
      <point x="333" y="656" type="line" smooth="yes"/>
      <point x="416.3984962406015" y="656"/>
      <point x="451.0" y="611.9761904761905"/>
      <point x="451" y="527" type="curve" smooth="yes"/>
      <point x="451.0" y="492.13684210526316"/>
      <point x="447.79053722991443" y="464.102302413919"/>
      <point x="441" y="435" type="curve" smooth="yes"/>
      <point x="409" y="312"/>
      <point x="345.0" y="273.0"/>
      <point x="253" y="273" type="curve" smooth="yes"/>
      <point x="209" y="273" type="line"/>
      <point x="304" y="656" type="line"/>
    </contour>
  </outline>
</glyph>
<glyph name="ruble.proportional" format="2">
  <advance width="517"/>
  <outline>
    <contour>
      <point x="353" y="181" type="line"/>
      <point x="18" y="181" type="line"/>
      <point x="30" y="230" type="line"/>
      <point x="365" y="230" type="line"/>
    </contour>
    <contour>
      <point x="73" y="401" type="line"/>
      <point x="306" y="401" type="line" smooth="yes"/>
      <point x="385" y="401.0"/>
      <point x="425.95365009185025" y="436.827475341887"/>
      <point x="444" y="504" type="curve" smooth="yes"/>
      <point x="449" y="524"/>
      <point x="450" y="539"/>
      <point x="450" y="554" type="curve" smooth="yes"/>
      <point x="450" y="617"/>
      <point x="418" y="656"/>
      <point x="360" y="656" type="curve" smooth="yes"/>
      <point x="296" y="656" type="line"/>
      <point x="148" y="66" type="line" smooth="yes"/>
      <point x="146" y="58"/>
      <point x="173" y="56"/>
      <point x="195" y="56" type="curve" smooth="yes"/>
      <point x="222" y="56" type="line"/>
      <point x="207" y="0" type="line"/>
      <point x="-29" y="0" type="line"/>
      <point x="-14" y="56" type="line"/>
      <point x="-3" y="56" type="line" smooth="yes"/>
      <point x="36" y="56"/>
      <point x="64" y="63"/>
      <point x="71" y="91" type="curve" smooth="yes"/>
      <point x="203" y="620" type="line" smooth="yes"/>
      <point x="210" y="649"/>
      <point x="183" y="656"/>
      <point x="146" y="656" type="curve" smooth="yes"/>
      <point x="135" y="656" type="line"/>
      <point x="149" y="710" type="line"/>
      <point x="359" y="710" type="line" smooth="yes"/>
      <point x="473" y="710"/>
      <point x="537" y="644"/>
      <point x="537" y="550" type="curve" smooth="yes"/>
      <point x="537.0" y="427.0"/>
      <point x="445.05194805194805" y="349"/>
      <point x="301" y="349" type="curve" smooth="yes"/>
      <point x="60" y="349" type="line"/>
    </contour>
  </outline>
</glyph>
<glyph name="seven" format="2">
  <advance width="560"/>
  <guideline x="0" y="667" angle="0" identifier="mbPmNaP6kv"/>
  <guideline x="0" y="-46" angle="0" identifier="wCSEUPjxMO"/>
  <outline>
    <contour>
      <point x="285" y="595.0" type="line" smooth="yes"/>
      <point x="213.54411764705884" y="595.0"/>
      <point x="183.4624362383848" y="587.5335523389929"/>
      <point x="172" y="552.0" type="curve" smooth="yes"/>
      <point x="142" y="459.0" type="line"/>
      <point x="87" y="459.0" type="line"/>
      <point x="138" y="667.0" type="line"/>
      <point x="594" y="667.0" type="line"/>
      <point x="576" y="593.0" type="line"/>
      <point x="389" y="423"/>
      <point x="289" y="309"/>
      <point x="203" y="-46.0" type="curve"/>
      <point x="109" y="-46.0" type="line"/>
      <point x="197" y="301"/>
      <point x="429" y="528"/>
      <point x="526" y="601.0" type="curve"/>
      <point x="531" y="595.0" type="line"/>
    </contour>
  </outline>
</glyph>
<glyph name="seven.lintab" format="2">
  <advance width="560"/>
  <outline>
    <contour>
      <point x="269" y="638.0" type="line" smooth="yes"/>
      <point x="196.3777777777778" y="638.0"/>
      <point x="166.47963897962373" y="630.5868808368335"/>
      <point x="155" y="595.0" type="curve" smooth="yes"/>
      <point x="125" y="502.0" type="line"/>
      <point x="70" y="502.0" type="line"/>
      <point x="121" y="710.0" type="line"/>
      <point x="593" y="710.0" type="line"/>
      <point x="574" y="635.0" type="line"/>
      <point x="397.22858463024977" y="466.2636489652384"/>
      <point x="283" y="330"/>
      <point x="188" y="0.0" type="curve"/>
      <point x="94" y="0.0" type="line"/>
      <point x="191" y="323"/>
      <point x="435.43782676995414" y="581.6083737049119"/>
      <point x="525" y="644.0" type="curve"/>
      <point x="529" y="638.0" type="line"/>
    </contour>
  </outline>
</glyph>
<glyph name="sterling.proportional" format="2">
  <advance width="561"/>
  <outline>
    <contour>
      <point x="360" y="678" type="curve" smooth="yes"/>
      <point x="429" y="678"/>
      <point x="464" y="658"/>
      <point x="499" y="646" type="curve"/>
      <point x="495" y="663"/>
      <point x="472" y="678"/>
      <point x="444" y="680" type="curve"/>
      <point x="407" y="532" type="line"/>
      <point x="497" y="532" type="line"/>
      <point x="538" y="697" type="line"/>
      <point x="513" y="709"/>
      <point x="454" y="735"/>
      <point x="362" y="735" type="curve" smooth="yes"/>
      <point x="222" y="735"/>
      <point x="144" y="658"/>
      <point x="144" y="542" type="curve" smooth="yes"/>
      <point x="144" y="450"/>
      <point x="190" y="386"/>
      <point x="190" y="281" type="curve" smooth="yes"/>
      <point x="190.0" y="159.0"/>
      <point x="130.71962530235285" y="93.6651327713846"/>
      <point x="2" y="60" type="curve"/>
      <point x="-16" y="-13" type="line"/>
      <point x="173.72442674070066" y="32.69279387472372"/>
      <point x="265.0" y="130.0"/>
      <point x="265" y="299" type="curve" smooth="yes"/>
      <point x="265" y="396"/>
      <point x="236" y="448"/>
      <point x="236" y="532" type="curve" smooth="yes"/>
      <point x="236" y="618"/>
      <point x="270" y="678"/>
    </contour>
    <contour>
      <point x="69" y="378" type="line"/>
      <point x="55" y="320" type="line"/>
      <point x="409" y="320" type="line"/>
      <point x="423" y="378" type="line"/>
    </contour>
    <contour>
      <point x="335" y="-10" type="curve" smooth="yes"/>
      <point x="417" y="-10"/>
      <point x="455" y="55"/>
      <point x="491" y="170" type="curve"/>
      <point x="444" y="191" type="line"/>
      <point x="412.8870944295743" y="105.6904202101231"/>
      <point x="400.7142857142857" y="78.0"/>
      <point x="343" y="78" type="curve" smooth="yes"/>
      <point x="280.39130434782606" y="78.0"/>
      <point x="255.92734475958662" y="115.1362285757751"/>
      <point x="208" y="205" type="curve"/>
      <point x="172" y="154" type="line"/>
      <point x="233.82454327494034" y="42.31695408397876"/>
      <point x="248.06666666666666" y="-10.0"/>
    </contour>
  </outline>
</glyph>
<glyph name="uni20B4.proportional" format="2">
  <advance width="586"/>
  <outline>
    <contour>
      <point x="31" y="249" type="line"/>
      <point x="506" y="249" type="line"/>
      <point x="520" y="305" type="line"/>
      <point x="45" y="305" type="line"/>
    </contour>
    <contour>
      <point x="76" y="429" type="line"/>
      <point x="551" y="429" type="line"/>
      <point x="565" y="485" type="line"/>
      <point x="90" y="485" type="line"/>
    </contour>
    <contour>
      <point x="269" y="-10" type="curve" smooth="yes"/>
      <point x="352" y="-10"/>
      <point x="412" y="18"/>
      <point x="442" y="32" type="curve"/>
      <point x="467" y="148" type="line"/>
      <point x="369" y="148" type="line"/>
      <point x="344" y="42" type="line"/>
      <point x="387" y="51"/>
      <point x="408" y="81"/>
      <point x="408" y="88" type="curve"/>
      <point x="374" y="69"/>
      <point x="334" y="47"/>
      <point x="277" y="47" type="curve" smooth="yes"/>
      <point x="218" y="47"/>
      <point x="171" y="69"/>
      <point x="171" y="138" type="curve" smooth="yes"/>
      <point x="171" y="199"/>
      <point x="205" y="250"/>
      <point x="274" y="279" type="curve"/>
      <point x="165" y="288" type="line"/>
      <point x="118" y="254"/>
      <point x="86" y="207"/>
      <point x="86" y="140" type="curve" smooth="yes"/>
      <point x="86" y="40"/>
      <point x="159" y="-10"/>
    </contour>
    <contour>
      <point x="433" y="443" type="line"/>
      <point x="484" y="477"/>
      <point x="531" y="541"/>
      <point x="531" y="603" type="curve" smooth="yes"/>
      <point x="531" y="687"/>
      <point x="476" y="730"/>
      <point x="366" y="730" type="curve" smooth="yes"/>
      <point x="292" y="730"/>
      <point x="235" y="705"/>
      <point x="202" y="687" type="curve"/>
      <point x="180" y="588" type="line"/>
      <point x="273" y="588" type="line"/>
      <point x="293" y="672" type="line"/>
      <point x="268" y="669"/>
      <point x="233" y="649"/>
      <point x="233" y="639" type="curve"/>
      <point x="259" y="655"/>
      <point x="298" y="675"/>
      <point x="356" y="675" type="curve" smooth="yes"/>
      <point x="419" y="675"/>
      <point x="450" y="653"/>
      <point x="450" y="602" type="curve" smooth="yes"/>
      <point x="450" y="547"/>
      <point x="412" y="505"/>
      <point x="354" y="467" type="curve"/>
    </contour>
  </outline>
</glyph>
<glyph name="won.proportional" format="2">
  <advance width="768"/>
  <outline>
    <contour>
      <point x="155" y="710" type="line"/>
      <point x="143" y="661" type="line"/>
      <point x="153" y="661" type="line" smooth="yes"/>
      <point x="171" y="661"/>
      <point x="187" y="658"/>
      <point x="183" y="624" type="curve" smooth="yes"/>
      <point x="115" y="0" type="line"/>
      <point x="189" y="0" type="line"/>
      <point x="488" y="703" type="line"/>
      <point x="461" y="707" type="line"/>
      <point x="401" y="0" type="line"/>
      <point x="481" y="0" type="line"/>
      <point x="719" y="618" type="line" smooth="yes"/>
      <point x="732" y="652"/>
      <point x="756" y="661"/>
      <point x="775" y="661" type="curve" smooth="yes"/>
      <point x="786" y="661" type="line"/>
      <point x="798" y="710" type="line"/>
      <point x="658" y="710" type="line"/>
      <point x="646" y="661" type="line"/>
      <point x="656" y="661" type="line" smooth="yes"/>
      <point x="673" y="661"/>
      <point x="680" y="654"/>
      <point x="677" y="643" type="curve"/>
      <point x="436" y="8" type="line"/>
      <point x="465" y="10" type="line"/>
      <point x="525" y="710" type="line"/>
      <point x="444" y="710" type="line"/>
      <point x="146" y="12" type="line"/>
      <point x="181" y="15" type="line"/>
      <point x="254" y="651" type="line"/>
      <point x="255" y="658"/>
      <point x="270" y="661"/>
      <point x="289" y="661" type="curve" smooth="yes"/>
      <point x="300" y="661" type="line"/>
      <point x="312" y="710" type="line"/>
    </contour>
    <contour>
      <point x="86" y="508" type="line"/>
      <point x="69" y="440" type="line"/>
      <point x="201" y="440" type="line"/>
      <point x="200" y="457" type="line"/>
      <point x="382" y="481" type="line"/>
      <point x="386" y="508" type="line"/>
    </contour>
    <contour>
      <point x="472" y="481" type="line"/>
      <point x="640" y="457" type="line"/>
      <point x="631" y="440" type="line"/>
      <point x="745" y="440" type="line"/>
      <point x="762" y="508" type="line"/>
      <point x="479" y="508" type="line"/>
    </contour>
    <contour>
      <point x="250" y="236" type="line"/>
      <point x="454" y="236" type="line"/>
      <point x="455" y="258" type="line"/>
      <point x="367" y="289" type="line"/>
      <point x="264" y="258" type="line"/>
    </contour>
    <contour>
      <point x="556" y="231" type="line"/>
      <point x="691" y="231" type="line"/>
      <point x="708" y="299" type="line"/>
      <point x="581" y="299" type="line"/>
    </contour>
    <contour>
      <point x="171" y="299" type="line"/>
      <point x="31" y="299" type="line"/>
      <point x="14" y="231" type="line"/>
      <point x="162" y="231" type="line"/>
    </contour>
  </outline>
</glyph>
